<svg width="512" height="512" viewBox="0 0 512 512" fill="none" xmlns="http://www.w3.org/2000/svg">
<g clip-path="url(#clip0_1_2)">
<path d="M480 270.1V368.02C480 447.4 417.1 512 339.7 512H231.8C208.35 512 185.07 505.894 164.47 494.34L108.62 462.99C81.1 447.5 64 417.1 64 385.9V338.93C64 312.3 75.63 287.37 95.93 270.53L114.64 255.07L68.44 127.3C65.46 119 64.05 110.5 64.05 102.1C64.05 72.08 82.11 43.73 111.14 32.69C156.8 15.06 194 46.19 204.9 76.75L205.664 78.896L206.4 68.79C209 30.21 241.2 0 279.3 0C319 0 351.39 33.27 351.39 73.92C351.39 75.665 351.329 77.421 351.207 79.188L345.072 167.978H353.213C375.323 167.978 396.323 178.528 409.953 196.028C448.8 197.4 480 230.2 480 270.1ZM432 269.1C432 254.76 420.97 243.1 407.38 243.1C407.38 243.1 393.07 243.14 392.67 243.14C385.776 243.14 378.47 239.038 376.28 232.47C372.78 222.08 363.5 215.09 353.22 215.09H339.69C322.71 215.09 323.29 228.79 309.8 228.79C300.717 228.79 293.84 221.398 293.84 212.83C293.84 212.466 293.852 212.099 293.878 211.731C293.878 211.731 303.383 73.6313 303.383 73.0313C303.383 58.7113 292.343 47.1013 278.893 47.1013C265.613 47.1013 255.153 57.8013 254.253 71.2013L242.973 234.401C242.785 237.075 240.066 249.321 226.793 249.321C220.118 249.321 214.213 245.037 211.943 238.671L159.7 92.84C156.1 85.39 149.4 75.97 136.7 75.97C125.56 75.97 112.04 85.219 112.04 101.94C112.04 104.983 112.551 108.081 113.63 111.106L198.66 345.206C199.318 347.007 199.63 348.85 199.63 350.662C199.63 359.622 192.254 366.662 184.53 366.662C178.016 366.662 171.84 362.594 169.49 356.072L146.02 291.262L127.46 306.602C117.3 315.2 112 326.6 112 338.9V385.87C112 400.64 119.719 414.15 132.16 421.14L188 452.5C201.41 460.031 216.56 464.02 231.81 464.02H339.71C390.62 464.02 432.02 420.96 432.02 368.02V269.1H432Z" fill="black"/>
</g>
<defs>
<clipPath id="clip0_1_2">
<rect width="512" height="512" rx="180" transform="matrix(0 1 1 0 0 0)" fill="white"/>
</clipPath>
</defs>
</svg>
